<svg xmlns="http://www.w3.org/2000/svg" width="512" height="512" viewBox="0 0 512 512" fill="none">
<path d="M358.545 324.907C349.275 323.061 341.171 318.487 335.791 312.065C334.686 310.865 332.919 309.185 332.256 308.405L329.826 305.765C328.132 303.964 326.807 302.584 325.187 301.024C323.567 299.464 319.811 297.184 317.381 295.023L316.203 294.123L315.319 293.343C314.964 292.994 314.57 292.672 314.141 292.383C313.192 291.586 311.952 291.06 310.606 290.883C307.514 290.883 306.851 293.583 306.262 296.104C306.262 296.404 306.262 298.084 306.262 299.104C306.262 300.124 306.262 301.504 306.262 302.704C306.273 305.057 306.52 307.405 306.998 309.725C308.058 315.151 310.066 320.425 312.963 325.387C313.994 326.887 312.963 328.447 309.355 329.107C303.926 329.897 298.376 328.382 294.627 325.087C292.81 323.423 291.136 321.659 289.62 319.806C288.419 317.909 287.527 315.891 286.969 313.805C285.85 310.106 285.16 306.329 284.907 302.524L284.465 296.824C284.361 293.759 284.508 290.692 284.907 287.643C285.996 282.218 289.709 277.376 295.216 274.201C302.005 271.068 310.233 270.8 317.308 273.481C321.041 274.745 324.597 276.335 327.911 278.222C330.522 279.567 332.986 281.092 335.275 282.782C339.717 286.113 343.829 289.725 347.573 293.583C351.991 297.904 352.065 298.564 354.053 300.364C355.048 301.514 356.508 302.342 358.177 302.704C359.904 302.741 361.495 301.94 362.227 300.664C362.97 299.784 363.588 298.838 364.068 297.844C364.402 297.298 364.697 296.737 364.951 296.164L366.129 293.703L371.873 281.702C374.622 274.754 378.25 268.057 382.698 261.72C383.79 260.225 385.021 258.801 386.38 257.46C388.132 255.494 390.791 254.194 393.744 253.859C396.422 254.327 398.832 255.509 400.592 257.219C401.553 257.917 402.44 258.68 403.243 259.5C404.392 260.911 405.054 262.549 405.158 264.24C405.855 265.995 405.855 267.886 405.158 269.641C400.003 278.497 395.431 287.571 391.461 296.824L388 303.724C387.209 305.783 386.224 307.789 385.054 309.725C384.136 311.679 382.924 313.534 381.446 315.246C380.163 316.915 378.63 318.447 376.881 319.806L374.377 321.726L371.505 323.166C367.502 325.006 362.894 325.782 358.324 325.387L358.545 324.907Z" fill="#1D1F21"/>
<path d="M260.311 397.394C234.885 372.713 211.864 346.451 191.46 318.846C169.896 290.191 155.622 258.296 149.486 225.056C144.849 199.9 147.651 174.204 157.66 150.108C167.572 128.61 184.505 109.728 206.629 95.5026C228.627 81.7229 254.729 72.9622 282.256 70.12C308.931 67.2659 336.044 68.9827 361.858 75.1605C387.825 81.4576 411.395 93.0434 430.341 108.824C446.45 122.737 459.524 138.789 469.001 156.289C478.149 173.185 485.157 190.798 489.914 208.854C492.967 220.462 494.985 232.234 495.953 244.078C497.116 255.634 497.509 267.232 497.131 278.822C496.75 301.8 494.734 324.741 491.093 347.529C488.736 361.63 483.729 359.53 478.28 347.169C470.979 327.689 466.82 307.517 465.909 287.163C465.393 275.761 464.288 264.42 463.405 253.319C462.614 242.475 461.065 231.676 458.766 220.976C453.84 199.89 445.443 179.444 433.802 160.189C427.997 151.119 421.037 142.571 413.036 134.687C405.113 127.189 395.971 120.608 385.864 115.125C375.414 109.837 364.212 105.605 352.506 102.523C340.085 99.4944 327.294 97.5828 314.362 96.8228C283.442 94.5251 252.622 102.001 228.279 117.705C204.333 134.17 188.917 157.408 185.127 182.752C182.889 197.032 183.162 211.499 185.937 225.716C188.953 240.23 193.891 254.434 200.665 268.081C215.77 295.922 235.064 322.126 258.102 346.089C270.179 359.17 282.771 372.012 295.731 384.793L332.108 420.377C333.287 421.457 334.244 422.657 335.496 423.617C336.748 424.577 338.883 423.257 340.43 422.777C341.976 422.297 344.48 420.917 346.468 419.897L357.366 413.896C364.73 409.815 372.536 405.675 380.415 401.895C384.318 399.914 388.368 397.934 392.418 395.894L398.898 393.014C401.402 391.934 403.537 390.974 406.704 389.773C417.674 385.323 429.308 382.055 441.313 380.052C451.428 378.435 461.832 378.435 471.947 380.052C481.52 381.455 490.393 385.081 497.499 390.493C501.102 393.309 502.71 397.42 501.77 401.415C500.702 404.593 498.791 407.543 496.174 410.056C490.33 416.032 483.431 421.269 475.702 425.597C468.339 429.798 459.723 433.998 451.181 438.198L438.736 444.199L434.023 446.719L429.973 449C424.736 451.918 419.81 455.19 415.246 458.781C411.438 461.569 408.401 464.985 406.335 468.802L405.894 469.882V469.882L395.29 467.061V467.061V467.061C395.127 466.997 394.937 466.997 394.774 467.061C394.112 467.061 394.774 467.061 394.774 467.061C394.774 467.061 394.774 467.061 394.774 466.641L395.363 465.681C395.658 465.049 395.808 464.378 395.805 463.701C396.226 461.72 396.424 459.711 396.394 457.7V457.7H397.941C400.518 457.34 403.684 456.68 406.777 456.02L426.291 451.58C444.774 447.499 469.664 441.859 485.643 442.939C490.04 443.129 494.392 443.754 498.604 444.799C502.565 445.942 506.181 447.763 509.208 450.14C510.363 451.666 511.231 453.325 511.785 455.06C512.072 456.451 512.072 457.87 511.785 459.261C511.151 462.991 509.731 466.605 507.588 469.942C505.015 473.935 501.795 477.628 498.015 480.923C489.953 487.328 481.287 493.207 472.094 498.505L467.16 501.505C465.982 502.279 464.753 503 463.478 503.665C461.785 504.445 460.238 505.105 458.766 505.645C456.023 506.623 453.192 507.425 450.297 508.046C447.648 508.856 445.165 509.989 442.933 511.406C441.166 512.366 439.473 512.306 438.147 510.146C436.675 506.79 436.675 503.121 438.147 499.765C439.03 497.467 440.163 495.238 441.534 493.104C442.234 491.907 443.021 490.745 443.891 489.624L444.554 488.724C444.554 488.724 444.554 488.724 444.554 488.304V487.584C445.355 485.933 446.341 484.346 447.499 482.843C448.221 481.974 448.838 481.049 449.34 480.083C449.417 479.705 449.417 479.32 449.34 478.943C449.404 478.669 449.32 478.386 449.108 478.167C448.896 477.948 448.577 477.815 448.235 477.803C445.418 477.763 442.633 478.299 440.135 479.363L437.484 480.323L436.453 480.803H436.012L434.907 481.163L419.001 484.643C412.684 486.049 406.265 487.131 399.782 487.884H395.805H392.565C390.848 487.811 389.144 487.59 387.484 487.224C386.076 486.955 384.697 486.593 383.36 486.143L381.225 485.363C379.456 484.553 377.801 483.588 376.291 482.483C369.992 478.005 366.937 471.216 368.191 464.481C368.191 463.701 368.191 462.861 368.633 462.141C369.075 461.421 369.296 460.341 369.222 460.581V460.221V459.501L369.958 458.001C370.766 456.14 371.802 454.351 373.051 452.66C374.058 451.037 375.241 449.491 376.586 448.039C380.94 443.01 386.062 438.453 391.829 434.478C396.983 430.878 402.064 427.697 407.145 424.757L414.509 420.917L416.645 419.717V419.717V419.717V419.717V419.717L414.73 420.557L411.637 421.937C408.986 423.137 406.335 424.457 403.684 425.717C393.081 430.998 382.55 436.878 371.137 443.059L366.792 445.399L363.184 447.319L358.986 449.42C353.63 452.199 347.866 454.416 341.829 456.02C336.214 457.28 330.286 457.28 324.671 456.02C323.304 455.757 322.039 455.221 320.989 454.46L317.455 452.48L310.091 448.52L257.808 398.114L260.311 397.394Z" fill="#1D1F21"/>
<path d="M328.057 260.58C334.453 263.96 340.294 267.993 345.435 272.581L348.602 275.401V275.941L349.412 277.141L351.474 280.202C351.842 280.622 352.357 281.882 352.946 281.402C353.302 281.066 353.576 280.68 353.756 280.262C354.419 278.882 354.198 276.781 355.082 275.341V275.341C355.082 275.341 355.082 275.341 355.082 274.681L355.892 272.281L357.806 267L358.985 264.06L360.899 260.34C362.27 257.753 363.947 255.281 365.907 252.959C369.132 248.712 373.748 245.283 379.235 243.058C384.673 240.953 390.83 240.424 396.687 241.558C402.62 242.64 408.149 244.862 412.814 248.038C415.153 249.665 417.39 251.387 419.515 253.199C421.282 255.059 422.681 257.039 424.228 259.2C428.684 265.917 431.392 273.312 432.181 280.922C432.696 284.102 432.696 286.922 433.064 290.163C433.433 293.403 433.064 296.163 433.064 299.164C433.146 304.953 432.851 310.742 432.181 316.506C431.297 323.826 430.193 331.027 428.793 338.108C428.057 341.648 425.848 345.008 425.038 348.489C424.228 351.969 423.197 355.45 422.461 358.93C421.724 362.41 419.073 362.71 416.275 358.93C414.484 356.347 413.052 353.61 412.004 350.769C411.194 349.029 410.899 347.229 410.089 345.249C409.061 343.293 408.176 341.289 407.438 339.248C406.407 331.747 406.628 324.606 406.039 317.526L405.229 307.145C405.229 303.784 405.229 300.424 404.64 297.183C404.279 291.272 403.093 285.414 401.106 279.722C400.772 278.521 400.278 277.354 399.633 276.241C399.117 275.401 398.528 273.901 398.234 273.541C397.35 272.101 397.203 271.321 396.614 270.361C395.86 269.092 394.357 268.23 392.637 268.08C390.935 268.326 389.498 269.249 388.808 270.541C388.388 271.194 388.043 271.876 387.777 272.581C387.262 273.721 386.452 275.641 385.789 277.561L384.684 280.682L383.064 286.082L380.192 296.943C378.945 303.251 375.948 309.244 371.429 314.465C370.573 315.322 369.637 316.124 368.631 316.866C367.526 317.725 366.19 318.362 364.728 318.726C363.476 318.906 362.186 318.692 361.12 318.126C360.089 317.646 359.279 317.466 358.027 316.806L354.419 315.005L350.148 312.305L349.044 311.645L347.865 310.385L345.583 307.865L341.017 302.884L336.451 297.724L331.739 293.283C330.929 292.563 330.192 291.783 329.309 291.123L327.762 289.743C326.731 288.963 325.848 288.063 324.817 287.342C321.008 284.243 316.606 281.669 311.783 279.722C310.077 279.087 308.166 278.918 306.334 279.242C304.525 279.735 302.936 280.653 301.768 281.882C299.915 283.96 299.1 286.533 299.485 289.083C299.846 292.976 300.939 296.801 302.725 300.424C306.646 308.527 311.817 316.189 318.116 323.226C328.43 334.1 339.995 344.146 352.652 353.229C355.376 355.33 358.248 357.19 360.899 359.23C370.914 367.091 372.829 370.391 370.251 376.332C369.776 377.696 369.21 379.038 368.558 380.352C365.98 384.433 358.396 383.893 349.559 378.672C322.205 362.181 299.213 341.364 281.959 317.466C278.292 312.241 275.329 306.708 273.123 300.964C271.936 297.587 271.098 294.134 270.619 290.643C270.426 288.345 270.426 286.04 270.619 283.742C270.859 281.313 271.453 278.916 272.386 276.601C272.788 275.437 273.28 274.295 273.859 273.181L275.995 270.001C277.408 267.852 279.112 265.839 281.076 264C283.138 262.44 285.347 260.88 287.63 259.44C289.981 258.193 292.442 257.089 294.993 256.139C306.253 253.424 318.401 254.779 328.351 259.86L328.057 260.58Z" fill="#1D1F21"/>
<path d="M124.378 116.025C126.661 116.025 125.998 118.605 123.494 122.626C122.213 124.47 120.514 126.099 118.487 127.426C117.007 127.91 115.479 128.291 113.921 128.566C113.185 128.566 104.422 126.226 101.182 125.686C98.274 125.058 95.5126 124.044 93.0081 122.686C87.8534 120.166 82.4779 117.825 77.1759 115.365C75.973 114.825 74.9397 114.065 74.1568 113.145C71.2221 110.094 67.3652 107.716 62.9638 106.244C62.2361 105.774 61.2647 105.638 60.3865 105.884C55.1764 104.925 50.373 102.854 46.4689 99.8835C44.4071 96.3431 41.8297 93.4028 39.4733 90.1624C39.1051 89.7424 38.4424 89.6824 38.6633 88.6023C39.2524 86.202 38.0006 85.842 37.1169 85.0019C35.7731 83.7198 34.8822 82.1642 34.5396 80.5014C34.3462 79.3869 34.3462 78.2557 34.5396 77.1411C34.5396 76.121 36.6751 74.4408 37.1169 74.3208C37.5587 74.2008 38.7369 72.8206 39.4733 71.9805C39.7011 71.6567 39.9728 71.3548 40.2833 71.0805C40.2833 71.0805 43.818 70.7204 47.6471 70.1804C50.0881 69.8819 52.57 69.8819 55.0109 70.1804L57.2937 70.9604L62.2274 72.5206L70.6958 74.9809C71.5058 74.9809 71.8004 76.061 72.3158 76.781C72.8313 77.5011 83.2142 81.1015 83.5824 81.4015C85.3497 82.7817 87.9271 83.2617 88.5162 86.082C88.5162 86.6221 89.1053 86.7421 89.5471 86.9821C92.7921 88.9457 95.7562 91.2 98.3836 93.7028C99.93 94.9029 101.918 95.743 103.612 96.8231C103.612 96.8231 104.054 97.4232 104.275 97.7232C104.496 98.0233 104.79 98.5633 105.232 98.7433C109.147 101.501 113.279 104.047 117.603 106.364C118.708 106.844 121.727 111.465 122.979 111.945C124.231 112.425 123.494 116.085 124.378 116.025Z" fill="#1D1F21"/>
<path d="M177.765 72.2806C179.458 73.4807 176.66 74.8609 171.358 76.061C168.939 76.4786 166.461 76.62 163.994 76.481C162.448 75.881 160.975 75.3409 159.871 74.8008C158.766 74.2608 155.379 68.8002 153.612 66.7C152.09 64.8783 150.992 62.8443 150.371 60.6994C148.899 56.5589 147.058 52.4785 145.29 48.2181C145.03 47.2292 145.03 46.2066 145.29 45.2178C145.774 41.7085 144.98 38.161 143.008 35.0167C143.008 34.4766 143.008 33.8766 141.461 33.5165C138.513 30.2325 136.846 26.3019 136.675 22.2354C138.148 18.695 138.884 15.2746 139.989 11.8543C139.989 11.3742 139.989 10.9542 140.725 10.3541C142.293 9.83088 143.165 8.45954 142.787 7.11377C142.946 5.54276 143.606 4.03289 144.701 2.73331C145.55 1.90542 146.514 1.16039 147.573 0.51308C148.914 0.0297554 150.401 -0.116502 151.844 0.0930359C152.949 0.633092 154.348 0.0930359 155.6 0.0930359H156.925C156.925 0.0930359 159.723 1.71321 162.669 3.21336C164.495 4.19114 166.133 5.38425 167.529 6.75373C167.529 6.75373 167.897 7.4138 168.413 8.3739L170.548 11.7943C172.095 14.3145 174.083 16.8348 174.377 17.4348C174.672 18.0349 174.377 18.695 174.377 19.355C174.377 20.0151 178.501 27.5759 178.575 27.9359C178.575 29.7361 180.121 31.2963 178.207 33.5165C177.984 33.8537 177.984 34.2594 178.207 34.5966C179.111 37.7016 179.532 40.887 179.458 44.0776C179.713 45.674 180.082 47.2569 180.563 48.8181C180.633 49.1356 180.633 49.4608 180.563 49.7782C180.424 50.1702 180.424 50.5863 180.563 50.9784C181.103 54.8891 181.889 58.7747 182.919 62.6196C183.288 63.5197 181.373 68.2002 181.888 69.2203C182.404 70.2404 177.176 71.8605 177.765 72.2806Z" fill="#1D1F21"/>
<path d="M110.459 176.872C112.668 175.911 113.993 178.492 114.509 182.872C114.488 184.925 114.014 186.957 113.11 188.873C111.931 189.953 110.827 191.033 109.796 191.813C105.472 192.916 101.22 194.198 97.0565 195.654C94.2473 196.69 91.2723 197.397 88.22 197.754C82.1817 198.774 76.1434 200.154 69.8841 201.534C68.4508 201.773 66.9728 201.773 65.5395 201.534C60.6065 200.798 55.5218 201.15 50.8119 202.554C49.9283 202.554 49.0446 202.554 48.4555 203.754C43.2789 206.002 37.53 207.235 31.6661 207.355C26.6587 206.095 21.7249 205.495 16.9385 204.594C16.2757 204.594 15.613 204.594 14.803 203.874C13.0357 201.654 11.6366 202.194 10.1638 202.074C7.96868 201.752 5.83796 201.187 3.83094 200.394C2.63627 199.725 1.5693 198.916 0.66451 197.994C-0.292783 197.214 0.00176864 194.453 0.222682 194.093C0.443596 193.733 0.222682 191.813 0.222682 190.673C0.222682 189.533 0.222682 189.773 0.222682 189.413C1.79672 187.844 3.46802 186.342 5.23006 184.912C6.76334 183.211 8.65888 181.748 10.8265 180.592L13.3302 179.872L18.6322 178.192L27.1742 175.251C27.9842 174.891 29.0887 175.251 30.046 175.251C31.0033 175.251 42.7117 171.471 43.3009 171.471C46.0255 171.471 48.5291 170.091 51.6956 171.771C52.2847 172.131 52.8001 171.771 53.3892 171.771C58.2209 170.898 63.1918 170.655 68.1168 171.051C70.6205 171.051 73.0506 170.751 75.4806 170.691C75.9224 170.691 76.4379 170.691 76.8797 171.051C77.4546 171.213 78.0461 171.334 78.647 171.411C84.6854 170.991 90.7237 171.951 96.8356 171.411C98.3084 171.411 105.009 173.811 106.629 173.751C108.249 173.691 109.649 177.232 110.459 176.872Z" fill="#1D1F21"/>
</svg>